{
	"patcher" : 	{
		"fileversion" : 1,
		"appversion" : 		{
			"major" : 7,
			"minor" : 2,
			"revision" : 4,
			"architecture" : "x86",
			"modernui" : 1
		}
,
		"rect" : [ 34.0, 76.0, 1335.0, 930.0 ],
		"bglocked" : 0,
		"openinpresentation" : 0,
		"default_fontsize" : 12.0,
		"default_fontface" : 0,
		"default_fontname" : "Arial",
		"gridonopen" : 1,
		"gridsize" : [ 15.0, 15.0 ],
		"gridsnaponopen" : 1,
		"objectsnaponopen" : 1,
		"statusbarvisible" : 2,
		"toolbarvisible" : 1,
		"lefttoolbarpinned" : 0,
		"toptoolbarpinned" : 0,
		"righttoolbarpinned" : 0,
		"bottomtoolbarpinned" : 0,
		"toolbars_unpinned_last_save" : 0,
		"tallnewobj" : 0,
		"boxanimatetime" : 200,
		"enablehscroll" : 1,
		"enablevscroll" : 1,
		"devicewidth" : 0.0,
		"description" : "",
		"digest" : "",
		"tags" : "",
		"style" : "",
		"subpatcher_template" : "",
		"boxes" : [ 			{
				"box" : 				{
					"id" : "obj-11",
					"maxclass" : "newobj",
					"numinlets" : 1,
					"numoutlets" : 1,
					"outlettype" : [ "" ],
					"patching_rect" : [ 866.0, 725.0, 100.0, 22.0 ],
					"style" : "",
					"text" : "cycle"
				}

			}
, 			{
				"box" : 				{
					"id" : "obj-36",
					"maxclass" : "newobj",
					"numinlets" : 2,
					"numoutlets" : 1,
					"outlettype" : [ "float" ],
					"patching_rect" : [ 942.066772, 55.0, 100.0, 22.0 ],
					"style" : "",
					"text" : "peakamp~ 20"
				}

			}
, 			{
				"box" : 				{
					"id" : "obj-9",
					"maxclass" : "newobj",
					"numinlets" : 1,
					"numoutlets" : 2,
					"outlettype" : [ "bang", "float" ],
					"patching_rect" : [ 752.666687, 186.0, 35.333332, 22.0 ],
					"style" : "",
					"text" : "t b f"
				}

			}
, 			{
				"box" : 				{
					"id" : "obj-8",
					"maxclass" : "newobj",
					"numinlets" : 1,
					"numoutlets" : 1,
					"outlettype" : [ "" ],
					"patching_rect" : [ 796.0, 181.333344, 100.0, 22.0 ],
					"style" : "",
					"text" : "loadmess 127"
				}

			}
, 			{
				"box" : 				{
					"id" : "obj-25",
					"maxclass" : "message",
					"numinlets" : 2,
					"numoutlets" : 1,
					"outlettype" : [ "" ],
					"patching_rect" : [ 1012.0, 156.0, 127.0, 22.0 ],
					"style" : "",
					"text" : "setLuminosity $1"
				}

			}
, 			{
				"box" : 				{
					"id" : "obj-12",
					"maxclass" : "comment",
					"numinlets" : 1,
					"numoutlets" : 0,
					"patching_rect" : [ 771.0, 247.0, 68.0, 20.0 ],
					"style" : "",
					"text" : "lumi"
				}

			}
, 			{
				"box" : 				{
					"id" : "obj-15",
					"maxclass" : "message",
					"numinlets" : 2,
					"numoutlets" : 1,
					"outlettype" : [ "" ],
					"patching_rect" : [ 711.0, 247.0, 86.0, 22.0 ],
					"style" : "",
					"text" : "8.074907"
				}

			}
, 			{
				"box" : 				{
					"id" : "obj-10",
					"maxclass" : "message",
					"numinlets" : 2,
					"numoutlets" : 1,
					"outlettype" : [ "" ],
					"patching_rect" : [ 1012.0, 119.0, 98.0, 22.0 ],
					"style" : "",
					"text" : "setSaturation $1"
				}

			}
, 			{
				"box" : 				{
					"id" : "obj-7",
					"maxclass" : "newobj",
					"numinlets" : 1,
					"numoutlets" : 1,
					"outlettype" : [ "signal" ],
					"patching_rect" : [ 942.066772, 20.0, 92.666664, 22.0 ],
					"style" : "",
					"text" : "receive~ amp"
				}

			}
, 			{
				"box" : 				{
					"id" : "obj-26",
					"maxclass" : "button",
					"numinlets" : 1,
					"numoutlets" : 1,
					"outlettype" : [ "bang" ],
					"patching_rect" : [ 192.0, 60.0, 24.0, 24.0 ],
					"style" : ""
				}

			}
, 			{
				"box" : 				{
					"id" : "obj-21",
					"maxclass" : "newobj",
					"numinlets" : 2,
					"numoutlets" : 2,
					"outlettype" : [ "bang", "" ],
					"patching_rect" : [ 185.0, 20.0, 100.0, 22.0 ],
					"style" : "",
					"text" : "sel 1"
				}

			}
, 			{
				"box" : 				{
					"id" : "obj-13",
					"maxclass" : "newobj",
					"numinlets" : 1,
					"numoutlets" : 1,
					"outlettype" : [ "" ],
					"patching_rect" : [ 596.0, 164.0, 100.0, 22.0 ],
					"style" : "",
					"text" : "loadmess 127"
				}

			}
, 			{
				"box" : 				{
					"id" : "obj-6",
					"maxclass" : "newobj",
					"numinlets" : 1,
					"numoutlets" : 1,
					"outlettype" : [ "" ],
					"patching_rect" : [ 411.400085, 608.0, 100.0, 22.0 ],
					"style" : "",
					"text" : "loadmess -15"
				}

			}
, 			{
				"box" : 				{
					"id" : "obj-2275",
					"maxclass" : "newobj",
					"numinlets" : 1,
					"numoutlets" : 1,
					"outlettype" : [ "signal" ],
					"patching_rect" : [ 844.5, 288.800049, 103.0, 22.0 ],
					"style" : "",
					"text" : "receive~ analysis"
				}

			}
, 			{
				"box" : 				{
					"id" : "obj-2274",
					"maxclass" : "spectroscope~",
					"numinlets" : 2,
					"numoutlets" : 1,
					"outlettype" : [ "" ],
					"patching_rect" : [ 556.0, 473.800049, 300.0, 100.0 ],
					"sono" : 1,
					"style" : ""
				}

			}
, 			{
				"box" : 				{
					"id" : "obj-2273",
					"maxclass" : "scope~",
					"numinlets" : 2,
					"numoutlets" : 0,
					"patching_rect" : [ 889.0, 335.800049, 316.0, 238.0 ],
					"style" : ""
				}

			}
, 			{
				"box" : 				{
					"id" : "obj-2272",
					"maxclass" : "comment",
					"numinlets" : 1,
					"numoutlets" : 0,
					"patching_rect" : [ 535.0, 341.800049, 37.0, 20.0 ],
					"style" : "",
					"text" : "1.2\n"
				}

			}
, 			{
				"box" : 				{
					"id" : "obj-2271",
					"maxclass" : "comment",
					"numinlets" : 1,
					"numoutlets" : 0,
					"patching_rect" : [ 542.0, 418.800049, 30.0, 20.0 ],
					"style" : "",
					"text" : "0.\n"
				}

			}
, 			{
				"box" : 				{
					"id" : "obj-2270",
					"maxclass" : "comment",
					"numinlets" : 1,
					"numoutlets" : 0,
					"patching_rect" : [ 556.0, 439.300049, 18.0, 20.0 ],
					"style" : "",
					"text" : "0"
				}

			}
, 			{
				"box" : 				{
					"id" : "obj-2269",
					"maxclass" : "comment",
					"numinlets" : 1,
					"numoutlets" : 0,
					"patching_rect" : [ 824.0, 439.300049, 43.0, 20.0 ],
					"style" : "",
					"text" : "20khz"
				}

			}
, 			{
				"box" : 				{
					"id" : "obj-2267",
					"linecount" : 7,
					"maxclass" : "comment",
					"numinlets" : 1,
					"numoutlets" : 0,
					"patching_rect" : [ 857.0, 335.800049, 19.0, 103.0 ],
					"style" : "",
					"text" : "amplitude"
				}

			}
, 			{
				"box" : 				{
					"id" : "obj-2265",
					"maxclass" : "comment",
					"numinlets" : 1,
					"numoutlets" : 0,
					"patching_rect" : [ 647.0, 439.300049, 150.0, 20.0 ],
					"style" : "",
					"text" : "frequency"
				}

			}
, 			{
				"box" : 				{
					"id" : "obj-2",
					"maxclass" : "spectroscope~",
					"numinlets" : 2,
					"numoutlets" : 1,
					"outlettype" : [ "" ],
					"patching_rect" : [ 556.0, 335.800049, 300.0, 100.0 ],
					"style" : ""
				}

			}
, 			{
				"box" : 				{
					"id" : "obj-4",
					"maxclass" : "newobj",
					"numinlets" : 1,
					"numoutlets" : 1,
					"outlettype" : [ "signal" ],
					"patching_rect" : [ 556.0, 595.900024, 80.0, 22.0 ],
					"style" : "",
					"text" : "receive~ freq"
				}

			}
, 			{
				"box" : 				{
					"id" : "obj-5",
					"maxclass" : "ezdac~",
					"numinlets" : 2,
					"numoutlets" : 0,
					"patching_rect" : [ 556.0, 690.800049, 45.0, 45.0 ],
					"style" : ""
				}

			}
, 			{
				"box" : 				{
					"display_range" : [ -70.0, 32.0 ],
					"id" : "obj-19",
					"maxclass" : "live.gain~",
					"numinlets" : 2,
					"numoutlets" : 5,
					"orientation" : 1,
					"outlettype" : [ "signal", "signal", "", "float", "list" ],
					"parameter_enable" : 1,
					"patching_rect" : [ 556.0, 630.800049, 136.0, 49.0 ],
					"presentation_rect" : [ 0.0, 0.0, 50.0, 35.0 ],
					"saved_attribute_attributes" : 					{
						"valueof" : 						{
							"parameter_longname" : "live.gain~[3]",
							"parameter_shortname" : "live.gain~",
							"parameter_type" : 0,
							"parameter_mmin" : -70.0,
							"parameter_mmax" : 32.0,
							"parameter_initial" : [ 0.0 ],
							"parameter_unitstyle" : 4
						}

					}
,
					"varname" : "live.gain~"
				}

			}
, 			{
				"box" : 				{
					"id" : "obj-31",
					"maxclass" : "toggle",
					"numinlets" : 1,
					"numoutlets" : 1,
					"outlettype" : [ "int" ],
					"parameter_enable" : 0,
					"patching_rect" : [ 463.900085, 1.666667, 24.0, 24.0 ],
					"style" : ""
				}

			}
, 			{
				"box" : 				{
					"id" : "obj-29",
					"maxclass" : "toggle",
					"numinlets" : 1,
					"numoutlets" : 1,
					"outlettype" : [ "int" ],
					"parameter_enable" : 0,
					"patching_rect" : [ 530.5, 50.0, 24.0, 24.0 ],
					"style" : ""
				}

			}
, 			{
				"box" : 				{
					"id" : "obj-28",
					"maxclass" : "newobj",
					"numinlets" : 1,
					"numoutlets" : 1,
					"outlettype" : [ "" ],
					"patching_rect" : [ 530.5, 82.0, 53.0, 22.0 ],
					"style" : "",
					"text" : "main 2"
				}

			}
, 			{
				"box" : 				{
					"id" : "obj-24",
					"maxclass" : "newobj",
					"numinlets" : 1,
					"numoutlets" : 2,
					"outlettype" : [ "bang", "float" ],
					"patching_rect" : [ 570.0, 215.200012, 31.0, 22.0 ],
					"style" : "",
					"text" : "t b f"
				}

			}
, 			{
				"box" : 				{
					"id" : "obj-23",
					"maxclass" : "newobj",
					"numinlets" : 2,
					"numoutlets" : 1,
					"outlettype" : [ "float" ],
					"patching_rect" : [ 570.0, 191.200012, 31.0, 22.0 ],
					"style" : "",
					"text" : "+ 0."
				}

			}
, 			{
				"box" : 				{
					"id" : "obj-22",
					"maxclass" : "comment",
					"numinlets" : 1,
					"numoutlets" : 0,
					"patching_rect" : [ 612.0, 247.0, 68.0, 20.0 ],
					"style" : "",
					"text" : "saturation"
				}

			}
, 			{
				"box" : 				{
					"id" : "obj-16",
					"maxclass" : "message",
					"numinlets" : 2,
					"numoutlets" : 1,
					"outlettype" : [ "" ],
					"patching_rect" : [ 552.0, 247.0, 75.333336, 22.0 ],
					"style" : "",
					"text" : "138.98"
				}

			}
, 			{
				"box" : 				{
					"id" : "obj-3",
					"maxclass" : "toggle",
					"numinlets" : 1,
					"numoutlets" : 1,
					"outlettype" : [ "int" ],
					"parameter_enable" : 0,
					"patching_rect" : [ 463.900085, 48.0, 24.0, 24.0 ],
					"style" : ""
				}

			}
, 			{
				"box" : 				{
					"id" : "obj-20",
					"maxclass" : "message",
					"numinlets" : 2,
					"numoutlets" : 1,
					"outlettype" : [ "" ],
					"patching_rect" : [ 346.900085, 87.0, 50.0, 22.0 ],
					"style" : "",
					"text" : "compile"
				}

			}
, 			{
				"box" : 				{
					"id" : "obj-18",
					"maxclass" : "newobj",
					"numinlets" : 1,
					"numoutlets" : 1,
					"outlettype" : [ "bang" ],
					"patching_rect" : [ 267.900085, 55.0, 100.0, 22.0 ],
					"style" : "",
					"text" : "loadbang"
				}

			}
, 			{
				"box" : 				{
					"id" : "obj-17",
					"maxclass" : "message",
					"numinlets" : 2,
					"numoutlets" : 1,
					"outlettype" : [ "" ],
					"patching_rect" : [ 267.900085, 87.0, 74.0, 22.0 ],
					"style" : "",
					"text" : "autowatch 1"
				}

			}
, 			{
				"box" : 				{
					"id" : "obj-14",
					"maxclass" : "newobj",
					"numinlets" : 9,
					"numoutlets" : 4,
					"outlettype" : [ "", "", "", "" ],
					"patching_rect" : [ 394.400085, 119.0, 568.0, 22.0 ],
					"saved_object_attributes" : 					{
						"filename" : "notesToColor.js",
						"parameter_enable" : 0
					}
,
					"style" : "",
					"text" : "js notesToColor"
				}

			}
, 			{
				"box" : 				{
					"id" : "obj-1",
					"maxclass" : "newobj",
					"numinlets" : 1,
					"numoutlets" : 1,
					"outlettype" : [ "" ],
					"patching_rect" : [ 463.900085, 82.0, 53.0, 22.0 ],
					"style" : "",
					"text" : "main 1"
				}

			}
, 			{
				"box" : 				{
					"id" : "obj-94",
					"maxclass" : "newobj",
					"numinlets" : 2,
					"numoutlets" : 1,
					"outlettype" : [ "int" ],
					"patching_rect" : [ 438.400085, 156.0, 29.5, 22.0 ],
					"style" : "",
					"text" : "/ 2"
				}

			}
, 			{
				"box" : 				{
					"id" : "obj-85",
					"maxclass" : "message",
					"numinlets" : 2,
					"numoutlets" : 1,
					"outlettype" : [ "" ],
					"patching_rect" : [ 347.066772, 250.200012, 50.0, 22.0 ],
					"style" : "",
					"text" : "180."
				}

			}
, 			{
				"box" : 				{
					"id" : "obj-69",
					"maxclass" : "newobj",
					"numinlets" : 2,
					"numoutlets" : 1,
					"outlettype" : [ "" ],
					"patching_rect" : [ 394.400085, 191.200012, 63.0, 22.0 ],
					"style" : "",
					"text" : "pack 0. 0."
				}

			}
, 			{
				"box" : 				{
					"id" : "obj-60",
					"maxclass" : "newobj",
					"numinlets" : 3,
					"numoutlets" : 2,
					"outlettype" : [ "", "" ],
					"patching_rect" : [ 394.400085, 223.200012, 43.0, 22.0 ],
					"style" : "",
					"text" : "line 0."
				}

			}
, 			{
				"box" : 				{
					"id" : "obj-254",
					"maxclass" : "newobj",
					"numinlets" : 2,
					"numoutlets" : 1,
					"outlettype" : [ "float" ],
					"patching_rect" : [ 394.400085, 156.0, 35.0, 22.0 ],
					"style" : "",
					"text" : "* 30."
				}

			}
, 			{
				"box" : 				{
					"id" : "obj-250",
					"maxclass" : "newobj",
					"numinlets" : 6,
					"numoutlets" : 1,
					"outlettype" : [ "" ],
					"patching_rect" : [ 399.066772, 250.200012, 119.0, 22.0 ],
					"style" : "",
					"text" : "scale 0. 360. 0. 255."
				}

			}
, 			{
				"box" : 				{
					"id" : "obj-80",
					"maxclass" : "message",
					"numinlets" : 2,
					"numoutlets" : 1,
					"outlettype" : [ "" ],
					"patching_rect" : [ 303.0, 331.800049, 50.0, 22.0 ],
					"style" : "",
					"text" : "3 12 12"
				}

			}
, 			{
				"box" : 				{
					"id" : "obj-76",
					"maxclass" : "newobj",
					"numinlets" : 4,
					"numoutlets" : 1,
					"outlettype" : [ "" ],
					"patching_rect" : [ 370.400116, 306.133362, 105.0, 22.0 ],
					"style" : "",
					"text" : "pak hsl 0 255 127"
				}

			}
, 			{
				"box" : 				{
					"compatibility" : 1,
					"id" : "obj-72",
					"maxclass" : "swatch",
					"numinlets" : 3,
					"numoutlets" : 2,
					"outlettype" : [ "", "float" ],
					"parameter_enable" : 0,
					"patching_rect" : [ 370.400085, 335.800049, 128.0, 32.0 ],
					"saturation" : 138
				}

			}
, 			{
				"box" : 				{
					"id" : "obj-71",
					"maxclass" : "button",
					"numinlets" : 1,
					"numoutlets" : 1,
					"outlettype" : [ "bang" ],
					"patching_rect" : [ 292.900085, 373.800049, 24.0, 24.0 ],
					"style" : ""
				}

			}
, 			{
				"box" : 				{
					"id" : "obj-58",
					"maxclass" : "newobj",
					"numinlets" : 5,
					"numoutlets" : 1,
					"outlettype" : [ "" ],
					"patching_rect" : [ 322.400085, 373.800049, 115.0, 22.0 ],
					"style" : "",
					"text" : "pak setall 255 0 0 0"
				}

			}
, 			{
				"box" : 				{
					"id" : "obj-54",
					"maxclass" : "newobj",
					"numinlets" : 1,
					"numoutlets" : 2,
					"outlettype" : [ "jit_matrix", "" ],
					"patching_rect" : [ 322.400085, 403.133362, 139.0, 22.0 ],
					"style" : "",
					"text" : "jit.matrix 4 char 480 360"
				}

			}
, 			{
				"box" : 				{
					"id" : "obj-59",
					"maxclass" : "toggle",
					"numinlets" : 1,
					"numoutlets" : 1,
					"outlettype" : [ "int" ],
					"parameter_enable" : 0,
					"patching_rect" : [ 292.900085, 402.133362, 24.0, 24.0 ],
					"style" : ""
				}

			}
, 			{
				"box" : 				{
					"id" : "obj-51",
					"maxclass" : "newobj",
					"numinlets" : 1,
					"numoutlets" : 3,
					"outlettype" : [ "", "bang", "" ],
					"patching_rect" : [ 292.900085, 438.300049, 198.0, 22.0 ],
					"style" : "",
					"text" : "jit.world @floating 1 @fsmenubar 0"
				}

			}
 ],
		"lines" : [ 			{
				"patchline" : 				{
					"destination" : [ "obj-14", 1 ],
					"disabled" : 0,
					"hidden" : 0,
					"midpoints" : [ 473.400085, 105.0, 472.525085, 105.0 ],
					"source" : [ "obj-1", 0 ]
				}

			}
, 			{
				"patchline" : 				{
					"destination" : [ "obj-14", 8 ],
					"disabled" : 0,
					"hidden" : 0,
					"midpoints" : [ 1021.5, 144.0, 972.0, 144.0, 972.0, 114.0, 952.900085, 114.0 ],
					"source" : [ "obj-10", 0 ]
				}

			}
, 			{
				"patchline" : 				{
					"destination" : [ "obj-23", 1 ],
					"disabled" : 0,
					"hidden" : 0,
					"midpoints" : [ 605.5, 186.0, 591.5, 186.0 ],
					"source" : [ "obj-13", 0 ]
				}

			}
, 			{
				"patchline" : 				{
					"destination" : [ "obj-23", 0 ],
					"disabled" : 0,
					"hidden" : 0,
					"midpoints" : [ 769.900085, 144.0, 741.0, 144.0, 741.0, 177.0, 708.0, 177.0, 708.0, 198.0, 603.0, 198.0, 603.0, 186.0, 579.5, 186.0 ],
					"source" : [ "obj-14", 2 ]
				}

			}
, 			{
				"patchline" : 				{
					"destination" : [ "obj-254", 0 ],
					"disabled" : 0,
					"hidden" : 0,
					"midpoints" : [ 403.900085, 144.0, 403.900085, 144.0 ],
					"source" : [ "obj-14", 0 ]
				}

			}
, 			{
				"patchline" : 				{
					"destination" : [ "obj-9", 0 ],
					"disabled" : 0,
					"hidden" : 0,
					"source" : [ "obj-14", 3 ]
				}

			}
, 			{
				"patchline" : 				{
					"destination" : [ "obj-94", 0 ],
					"disabled" : 0,
					"hidden" : 0,
					"midpoints" : [ 586.900085, 153.0, 447.900085, 153.0 ],
					"source" : [ "obj-14", 1 ]
				}

			}
, 			{
				"patchline" : 				{
					"destination" : [ "obj-25", 0 ],
					"disabled" : 0,
					"hidden" : 0,
					"midpoints" : [ 720.5, 294.0, 831.0, 294.0, 831.0, 273.0, 999.0, 273.0, 999.0, 150.0, 1021.5, 150.0 ],
					"source" : [ "obj-15", 0 ]
				}

			}
, 			{
				"patchline" : 				{
					"destination" : [ "obj-76", 3 ],
					"disabled" : 0,
					"hidden" : 0,
					"midpoints" : [ 720.5, 300.0, 465.900116, 300.0 ],
					"source" : [ "obj-15", 0 ]
				}

			}
, 			{
				"patchline" : 				{
					"destination" : [ "obj-10", 0 ],
					"disabled" : 0,
					"hidden" : 0,
					"midpoints" : [ 561.5, 279.0, 696.0, 279.0, 696.0, 219.0, 999.0, 219.0, 999.0, 114.0, 1021.5, 114.0 ],
					"source" : [ "obj-16", 0 ]
				}

			}
, 			{
				"patchline" : 				{
					"destination" : [ "obj-23", 1 ],
					"disabled" : 0,
					"hidden" : 0,
					"midpoints" : [ 561.5, 270.0, 549.0, 270.0, 549.0, 186.0, 591.5, 186.0 ],
					"source" : [ "obj-16", 0 ]
				}

			}
, 			{
				"patchline" : 				{
					"destination" : [ "obj-76", 2 ],
					"disabled" : 0,
					"hidden" : 0,
					"midpoints" : [ 561.5, 291.0, 437.233459, 291.0 ],
					"source" : [ "obj-16", 0 ]
				}

			}
, 			{
				"patchline" : 				{
					"destination" : [ "obj-14", 0 ],
					"disabled" : 0,
					"hidden" : 0,
					"midpoints" : [ 277.400085, 120.0, 390.0, 120.0, 390.0, 114.0, 403.900085, 114.0 ],
					"source" : [ "obj-17", 0 ]
				}

			}
, 			{
				"patchline" : 				{
					"destination" : [ "obj-17", 0 ],
					"disabled" : 0,
					"hidden" : 0,
					"midpoints" : [ 277.400085, 78.0, 277.400085, 78.0 ],
					"source" : [ "obj-18", 0 ]
				}

			}
, 			{
				"patchline" : 				{
					"destination" : [ "obj-20", 0 ],
					"disabled" : 0,
					"hidden" : 0,
					"midpoints" : [ 277.400085, 78.0, 356.400085, 78.0 ],
					"source" : [ "obj-18", 0 ]
				}

			}
, 			{
				"patchline" : 				{
					"destination" : [ "obj-5", 1 ],
					"disabled" : 0,
					"hidden" : 0,
					"midpoints" : [ 594.75, 681.0, 591.5, 681.0 ],
					"source" : [ "obj-19", 1 ]
				}

			}
, 			{
				"patchline" : 				{
					"destination" : [ "obj-5", 0 ],
					"disabled" : 0,
					"hidden" : 0,
					"midpoints" : [ 565.5, 681.0, 565.5, 681.0 ],
					"source" : [ "obj-19", 0 ]
				}

			}
, 			{
				"patchline" : 				{
					"destination" : [ "obj-14", 0 ],
					"disabled" : 0,
					"hidden" : 0,
					"midpoints" : [ 356.400085, 111.0, 403.900085, 111.0 ],
					"source" : [ "obj-20", 0 ]
				}

			}
, 			{
				"patchline" : 				{
					"destination" : [ "obj-26", 0 ],
					"disabled" : 0,
					"hidden" : 0,
					"midpoints" : [ 194.5, 54.0, 201.5, 54.0 ],
					"source" : [ "obj-21", 0 ]
				}

			}
, 			{
				"patchline" : 				{
					"destination" : [ "obj-2", 0 ],
					"disabled" : 0,
					"hidden" : 0,
					"midpoints" : [ 854.0, 321.0, 565.5, 321.0 ],
					"source" : [ "obj-2275", 0 ]
				}

			}
, 			{
				"patchline" : 				{
					"destination" : [ "obj-2273", 0 ],
					"disabled" : 0,
					"hidden" : 0,
					"midpoints" : [ 854.0, 321.0, 898.5, 321.0 ],
					"source" : [ "obj-2275", 0 ]
				}

			}
, 			{
				"patchline" : 				{
					"destination" : [ "obj-2274", 0 ],
					"disabled" : 0,
					"hidden" : 0,
					"midpoints" : [ 854.0, 321.0, 522.0, 321.0, 522.0, 468.0, 565.5, 468.0 ],
					"source" : [ "obj-2275", 0 ]
				}

			}
, 			{
				"patchline" : 				{
					"destination" : [ "obj-24", 0 ],
					"disabled" : 0,
					"hidden" : 0,
					"midpoints" : [ 579.5, 216.0, 579.5, 216.0 ],
					"source" : [ "obj-23", 0 ]
				}

			}
, 			{
				"patchline" : 				{
					"destination" : [ "obj-16", 1 ],
					"disabled" : 0,
					"hidden" : 0,
					"midpoints" : [ 591.5, 240.0, 617.833313, 240.0 ],
					"source" : [ "obj-24", 1 ]
				}

			}
, 			{
				"patchline" : 				{
					"destination" : [ "obj-16", 0 ],
					"disabled" : 0,
					"hidden" : 0,
					"midpoints" : [ 579.5, 240.0, 561.5, 240.0 ],
					"source" : [ "obj-24", 0 ]
				}

			}
, 			{
				"patchline" : 				{
					"destination" : [ "obj-14", 8 ],
					"disabled" : 0,
					"hidden" : 0,
					"midpoints" : [ 1021.5, 180.0, 972.0, 180.0, 972.0, 114.0, 952.900085, 114.0 ],
					"source" : [ "obj-25", 0 ]
				}

			}
, 			{
				"patchline" : 				{
					"destination" : [ "obj-76", 1 ],
					"disabled" : 0,
					"hidden" : 0,
					"midpoints" : [ 408.566772, 273.0, 408.566772, 273.0 ],
					"source" : [ "obj-250", 0 ]
				}

			}
, 			{
				"patchline" : 				{
					"destination" : [ "obj-69", 0 ],
					"disabled" : 0,
					"hidden" : 0,
					"midpoints" : [ 403.900085, 180.0, 403.900085, 180.0 ],
					"source" : [ "obj-254", 0 ]
				}

			}
, 			{
				"patchline" : 				{
					"destination" : [ "obj-13", 0 ],
					"disabled" : 0,
					"hidden" : 0,
					"midpoints" : [ 201.5, 153.0, 582.0, 153.0, 582.0, 159.0, 605.5, 159.0 ],
					"source" : [ "obj-26", 0 ]
				}

			}
, 			{
				"patchline" : 				{
					"destination" : [ "obj-18", 0 ],
					"disabled" : 0,
					"hidden" : 0,
					"midpoints" : [ 201.5, 87.0, 252.0, 87.0, 252.0, 51.0, 277.400085, 51.0 ],
					"source" : [ "obj-26", 0 ]
				}

			}
, 			{
				"patchline" : 				{
					"destination" : [ "obj-14", 2 ],
					"disabled" : 0,
					"hidden" : 0,
					"midpoints" : [ 540.0, 105.0, 541.150085, 105.0 ],
					"source" : [ "obj-28", 0 ]
				}

			}
, 			{
				"patchline" : 				{
					"destination" : [ "obj-28", 0 ],
					"disabled" : 0,
					"hidden" : 0,
					"midpoints" : [ 540.0, 75.0, 540.0, 75.0 ],
					"source" : [ "obj-29", 0 ]
				}

			}
, 			{
				"patchline" : 				{
					"destination" : [ "obj-1", 0 ],
					"disabled" : 0,
					"hidden" : 0,
					"midpoints" : [ 473.400085, 75.0, 473.400085, 75.0 ],
					"source" : [ "obj-3", 0 ]
				}

			}
, 			{
				"patchline" : 				{
					"destination" : [ "obj-21", 0 ],
					"disabled" : 0,
					"hidden" : 0,
					"midpoints" : [ 473.400085, 27.0, 297.0, 27.0, 297.0, 6.0, 194.5, 6.0 ],
					"source" : [ "obj-31", 0 ]
				}

			}
, 			{
				"patchline" : 				{
					"destination" : [ "obj-29", 0 ],
					"disabled" : 0,
					"hidden" : 0,
					"midpoints" : [ 473.400085, 27.0, 540.0, 27.0 ],
					"source" : [ "obj-31", 0 ]
				}

			}
, 			{
				"patchline" : 				{
					"destination" : [ "obj-3", 0 ],
					"disabled" : 0,
					"hidden" : 0,
					"midpoints" : [ 473.400085, 27.0, 473.400085, 27.0 ],
					"source" : [ "obj-31", 0 ]
				}

			}
, 			{
				"patchline" : 				{
					"destination" : [ "obj-5", 0 ],
					"disabled" : 0,
					"hidden" : 0,
					"midpoints" : [ 473.400085, 27.0, 408.0, 27.0, 408.0, 114.0, 381.0, 114.0, 381.0, 219.0, 447.0, 219.0, 447.0, 237.0, 528.0, 237.0, 528.0, 327.0, 522.0, 327.0, 522.0, 684.0, 565.5, 684.0 ],
					"source" : [ "obj-31", 0 ]
				}

			}
, 			{
				"patchline" : 				{
					"destination" : [ "obj-59", 0 ],
					"disabled" : 0,
					"hidden" : 0,
					"midpoints" : [ 473.400085, 27.0, 408.0, 27.0, 408.0, 114.0, 381.0, 114.0, 381.0, 237.0, 279.0, 237.0, 279.0, 399.0, 302.400085, 399.0 ],
					"source" : [ "obj-31", 0 ]
				}

			}
, 			{
				"patchline" : 				{
					"destination" : [ "obj-14", 8 ],
					"disabled" : 0,
					"hidden" : 0,
					"source" : [ "obj-36", 0 ]
				}

			}
, 			{
				"patchline" : 				{
					"destination" : [ "obj-19", 1 ],
					"disabled" : 0,
					"hidden" : 0,
					"midpoints" : [ 565.5, 624.0, 682.5, 624.0 ],
					"source" : [ "obj-4", 0 ]
				}

			}
, 			{
				"patchline" : 				{
					"destination" : [ "obj-19", 0 ],
					"disabled" : 0,
					"hidden" : 0,
					"midpoints" : [ 565.5, 618.0, 565.5, 618.0 ],
					"source" : [ "obj-4", 0 ]
				}

			}
, 			{
				"patchline" : 				{
					"destination" : [ "obj-51", 0 ],
					"disabled" : 0,
					"hidden" : 0,
					"midpoints" : [ 331.900085, 426.0, 303.0, 426.0, 303.0, 432.0, 302.400085, 432.0 ],
					"source" : [ "obj-54", 0 ]
				}

			}
, 			{
				"patchline" : 				{
					"destination" : [ "obj-54", 0 ],
					"disabled" : 0,
					"hidden" : 0,
					"midpoints" : [ 331.900085, 396.0, 331.900085, 396.0 ],
					"source" : [ "obj-58", 0 ]
				}

			}
, 			{
				"patchline" : 				{
					"destination" : [ "obj-71", 0 ],
					"disabled" : 0,
					"hidden" : 0,
					"midpoints" : [ 331.900085, 396.0, 318.0, 396.0, 318.0, 369.0, 302.400085, 369.0 ],
					"source" : [ "obj-58", 0 ]
				}

			}
, 			{
				"patchline" : 				{
					"destination" : [ "obj-51", 0 ],
					"disabled" : 0,
					"hidden" : 0,
					"midpoints" : [ 302.400085, 429.0, 302.400085, 429.0 ],
					"source" : [ "obj-59", 0 ]
				}

			}
, 			{
				"patchline" : 				{
					"destination" : [ "obj-19", 0 ],
					"disabled" : 0,
					"hidden" : 0,
					"midpoints" : [ 420.900085, 642.0, 543.0, 642.0, 543.0, 624.0, 565.5, 624.0 ],
					"source" : [ "obj-6", 0 ]
				}

			}
, 			{
				"patchline" : 				{
					"destination" : [ "obj-250", 0 ],
					"disabled" : 0,
					"hidden" : 0,
					"midpoints" : [ 403.900085, 246.0, 408.566772, 246.0 ],
					"source" : [ "obj-60", 0 ]
				}

			}
, 			{
				"patchline" : 				{
					"destination" : [ "obj-85", 1 ],
					"disabled" : 0,
					"hidden" : 0,
					"midpoints" : [ 403.900085, 246.0, 387.566772, 246.0 ],
					"source" : [ "obj-60", 0 ]
				}

			}
, 			{
				"patchline" : 				{
					"destination" : [ "obj-60", 0 ],
					"disabled" : 0,
					"hidden" : 0,
					"midpoints" : [ 403.900085, 216.0, 403.900085, 216.0 ],
					"source" : [ "obj-69", 0 ]
				}

			}
, 			{
				"patchline" : 				{
					"destination" : [ "obj-36", 0 ],
					"disabled" : 0,
					"hidden" : 0,
					"source" : [ "obj-7", 0 ]
				}

			}
, 			{
				"patchline" : 				{
					"destination" : [ "obj-54", 0 ],
					"disabled" : 0,
					"hidden" : 0,
					"midpoints" : [ 302.400085, 399.0, 331.900085, 399.0 ],
					"source" : [ "obj-71", 0 ]
				}

			}
, 			{
				"patchline" : 				{
					"destination" : [ "obj-58", 2 ],
					"disabled" : 0,
					"hidden" : 0,
					"midpoints" : [ 379.900085, 369.0, 379.900085, 369.0 ],
					"source" : [ "obj-72", 0 ]
				}

			}
, 			{
				"patchline" : 				{
					"destination" : [ "obj-80", 1 ],
					"disabled" : 0,
					"hidden" : 0,
					"midpoints" : [ 379.900085, 369.0, 354.0, 369.0, 354.0, 327.0, 343.5, 327.0 ],
					"source" : [ "obj-72", 0 ]
				}

			}
, 			{
				"patchline" : 				{
					"destination" : [ "obj-72", 0 ],
					"disabled" : 0,
					"hidden" : 0,
					"midpoints" : [ 379.900116, 330.0, 379.900085, 330.0 ],
					"source" : [ "obj-76", 0 ]
				}

			}
, 			{
				"patchline" : 				{
					"destination" : [ "obj-15", 1 ],
					"disabled" : 0,
					"hidden" : 0,
					"source" : [ "obj-8", 0 ]
				}

			}
, 			{
				"patchline" : 				{
					"destination" : [ "obj-15", 1 ],
					"disabled" : 0,
					"hidden" : 0,
					"source" : [ "obj-9", 1 ]
				}

			}
, 			{
				"patchline" : 				{
					"destination" : [ "obj-15", 0 ],
					"disabled" : 0,
					"hidden" : 0,
					"source" : [ "obj-9", 0 ]
				}

			}
, 			{
				"patchline" : 				{
					"destination" : [ "obj-69", 1 ],
					"disabled" : 0,
					"hidden" : 0,
					"midpoints" : [ 447.900085, 180.0, 447.900085, 180.0 ],
					"source" : [ "obj-94", 0 ]
				}

			}
 ],
		"parameters" : 		{
			"obj-19" : [ "live.gain~[3]", "live.gain~", 0 ]
		}
,
		"dependency_cache" : [ 			{
				"name" : "main.maxpat",
				"bootpath" : "D:/Repositories/color_organ/main/patchers",
				"type" : "JSON",
				"implicit" : 1
			}
, 			{
				"name" : "partial.maxpat",
				"bootpath" : "D:/Repositories/color_organ/main/patchers",
				"type" : "JSON",
				"implicit" : 1
			}
, 			{
				"name" : "setup.js",
				"bootpath" : "D:/Repositories/color_organ/main/code",
				"type" : "TEXT",
				"implicit" : 1
			}
, 			{
				"name" : "settings.js",
				"bootpath" : "D:/Repositories/color_organ/main/code",
				"type" : "TEXT",
				"implicit" : 1
			}
, 			{
				"name" : "util.js",
				"bootpath" : "D:/Repositories/color_organ/main/code",
				"type" : "TEXT",
				"implicit" : 1
			}
, 			{
				"name" : "frequency_control.js",
				"bootpath" : "D:/Repositories/color_organ/main/code",
				"type" : "TEXT",
				"implicit" : 1
			}
, 			{
				"name" : "partial_test.maxpat",
				"bootpath" : "D:/Repositories/color_organ/main/patchers",
				"type" : "JSON",
				"implicit" : 1
			}
, 			{
				"name" : "Re-Zero Episode 18 Insert Song『REM (Inori Minase) - Wishing』.mp3",
				"bootpath" : "D:/Repositories/color_organ/main/media",
				"type" : "Mp3 ",
				"implicit" : 1
			}
, 			{
				"name" : "playbackControl.maxpat",
				"bootpath" : "D:/Repositories/color_organ/main/patchers",
				"type" : "JSON",
				"implicit" : 1
			}
, 			{
				"name" : "notesToColor.js",
				"bootpath" : "D:/Repositories/color_organ/main/code",
				"type" : "TEXT",
				"implicit" : 1
			}
 ],
		"autosave" : 0
	}

}
